<svg id="Layer_3" enable-background="new 0 0 64 64" height="512" viewBox="0 0 64 64" width="512" xmlns="http://www.w3.org/2000/svg">

<style>
path{
    fill:#fff;
}
path : hover{
    fill:#000000;
}
</style>

<g><path d="m29 34.36v-3.787c0-1.643.163-3.292.485-4.9.342-1.709.515-3.458.515-5.198v-.595c0-2.655-.327-5.309-.971-7.884l-.029-5.996c0-2.757-2.243-5-5-5-2.546 0-4.631 1.921-4.938 4.385-.472-.238-.998-.385-1.562-.385-1.825 0-3.311 1.409-3.469 3.194-.323-.119-.667-.194-1.031-.194-1.654 0-3 1.346-3 3v.051c-.162-.033-.329-.051-.5-.051-1.379 0-2.5 1.121-2.5 2.5v.551c-.162-.033-.329-.051-.5-.051-1.379 0-2.5 1.121-2.5 2.5 0 1.104.177 2.193.552 3.316.297.893.448 1.824.448 2.765v2.119c0 1.657.392 3.318 1.134 4.805l2.122 4.243c1.795 3.59 2.744 7.609 2.744 11.623v1.432c0 3.576.674 7.073 2.002 10.395 1.41 3.525 4.774 5.803 8.57 5.803 3.698 0 7.028-2.196 8.484-5.594.627-1.46.944-3.006.944-4.595v-4.172c0-2.507-.35-5.001-1.038-7.414-.639-2.235-.962-4.545-.962-6.866zm0 18.452c0 1.317-.263 2.598-.781 3.807-1.141 2.661-3.75 4.381-6.647 4.381-2.974 0-5.608-1.784-6.713-4.545-1.233-3.084-1.859-6.332-1.859-9.652v-1.432c0-4.322-1.021-8.651-2.955-12.518l-2.122-4.242c-.604-1.21-.923-2.562-.923-3.911v-2.119c0-1.157-.186-2.3-.577-3.475-.28-.841-.423-1.718-.423-2.606 0-.275.225-.5.5-.5s.5.225.5.5v1.5h2v-1.5-3c0-.275.225-.5.5-.5s.5.225.5.5v1.5 1h2v-1-1.5-2.5c0-.552.448-1 1-1s1 .448 1 1v1 1h2v-1-1-2.5c0-.827.673-1.5 1.5-1.5s1.5.673 1.5 1.5v.5 2h2v-2-.5-2.5c0-1.654 1.346-3 3-3s3 1.346 3 3v6c0 .081.01.162.029.24l.06.238c.604 2.42.911 4.911.911 7.402v.595c0 1.608-.16 3.226-.476 4.806-.347 1.737-.524 3.518-.524 5.292v3.787c0 2.507.35 5.001 1.038 7.414.639 2.235.962 4.545.962 6.866z"/><path d="m57.5 14c-.171 0-.338.018-.5.051v-.551c0-1.379-1.121-2.5-2.5-2.5-.171 0-.338.018-.5.051v-.051c0-1.654-1.346-3-3-3-.364 0-.708.075-1.031.194-.158-1.785-1.644-3.194-3.469-3.194-.564 0-1.09.147-1.562.385-.307-2.464-2.392-4.385-4.938-4.385-2.023 0-3.761 1.214-4.547 2.947-2.162 2.048-3.453 5.405-3.453 9.053 0 2.805.747 5.366 2 7.313v.162c0 1.74.173 3.489.515 5.198.322 1.608.485 3.258.485 4.9v3.787c0 2.32-.323 4.631-.962 6.865-.688 2.414-1.038 4.908-1.038 7.415v4.172c0 1.59.317 3.136.943 4.594 1.456 3.398 4.786 5.594 8.485 5.594 3.796 0 7.16-2.277 8.57-5.803 1.328-3.321 2.002-6.818 2.002-10.394v-1.432c0-4.014.949-8.033 2.744-11.623l2.122-4.244c.742-1.485 1.134-3.147 1.134-4.804v-2.119c0-.941.151-1.872.474-2.842.349-1.046.526-2.135.526-3.239 0-1.379-1.121-2.5-2.5-2.5zm-22.5-5.901v3.778l-.028.116c-.303 1.213-.53 2.444-.692 3.683-.179-.849-.28-1.747-.28-2.676 0-1.759.366-3.455 1-4.901zm22.552 11.085c-.366 1.097-.552 2.24-.552 3.397v2.119c0 1.349-.319 2.701-.923 3.91l-2.122 4.243c-1.934 3.867-2.955 8.196-2.955 12.518v1.432c0 3.32-.626 6.568-1.859 9.652-1.105 2.761-3.74 4.545-6.713 4.545-2.896 0-5.506-1.72-6.646-4.383-.519-1.208-.782-2.488-.782-3.805v-4.172c0-2.32.323-4.631.962-6.865.688-2.414 1.038-4.908 1.038-7.415v-3.787c0-1.774-.177-3.556-.524-5.293-.175-.875-.297-1.761-.375-2.651.588.445 1.225.791 1.9 1.025v13.346c0 .553.447 1 1 1h12c.553 0 1-.447 1-1v-18c0-.553-.447-1-1-1h-3.862c.553-1.509.861-3.211.861-5 0-1.886-.35-3.745-1.01-5.375l-1.854.75c.565 1.395.864 2.994.864 4.625 0 1.823-.378 3.551-1.029 5h-5.971c-.553 0-1 .447-1 1v2.473c-.746-.399-1.419-1.012-1.994-1.786.015-2.427.316-4.851.906-7.21l.059-.236c.019-.079.029-.16.029-.241v-6c0-1.654 1.346-3 3-3s3 1.346 3 3v2.5.5 2h2v-2-.5c0-.827.673-1.5 1.5-1.5s1.5.673 1.5 1.5v2.5 1 1h2v-1-1c0-.552.448-1 1-1s1 .448 1 1v2.5 1.5 1h2v-1-1.5c0-.275.225-.5.5-.5s.5.225.5.5v3 1.5h2v-1.5c0-.275.225-.5.5-.5s.5.225.5.5c0 .888-.143 1.765-.448 2.684zm-15.16 4.322c1.533-.652 2.832-1.892 3.796-3.506h3.812v16h-10v-16h3.751c-.62.75-1.343 1.326-2.142 1.666z"/><path d="m41 33h2v2h-2z"/><path d="m44 33h5v2h-5z"/><path d="m47 30h2v2h-2z"/><path d="m41 30h5v2h-5z"/><path d="m41 26h2v2h-2z"/></g></svg>